<?xml version="1.0" encoding="UTF-8"?>
<svg width="24px" height="24px" viewBox="0 0 24 24" version="1.1" xmlns="http://www.w3.org/2000/svg" xmlns:xlink="http://www.w3.org/1999/xlink">
    <!-- Generator: Sketch 49.2 (51160) - http://www.bohemiancoding.com/sketch -->
    <title>ic_log_out</title>
    <desc>Created with Sketch.</desc>
    <defs></defs>
    <g id="Page-1" stroke="none" stroke-width="1" fill="none" fill-rule="evenodd">
        <g id="ic_sign_out" transform="translate(-358.000000, -180.000000)">
            <g id="1.3-Profile-3-Clipped">
                <g id="1.3-Profile-3">
                    <g id="Toolbar">
                        <g id="ic_log_out" transform="translate(358.000000, 180.000000)">
                            <rect id="Bounds" x="0" y="0" width="24" height="24"></rect>
                            <path d="M19,3 C20.11,3 21,3.9 21,5 L21,8 L19,8 L19,5 L5,5 L5,19 L19,19 L19,16 L21,16 L21,19 C21,20.1 20.11,21 19,21 L5,21 C3.9,21 3,20.1 3,19 L3,5 C3,3.9 3.9,3 5,3 L19,3 Z M15.5,17 L20.5,12 L15.5,7 L14.09,8.41 L16.67,11 L7,11 L7,13 L16.67,13 L14.09,15.59 L15.5,17 Z" id="Icon" fill="#FFFFFF" fill-rule="nonzero"></path>
                        </g>
                    </g>
                </g>
            </g>
        </g>
    </g>
</svg>