<svg width="22" height="20" viewBox="0 0 22 20" version="1.1" xmlns="http://www.w3.org/2000/svg" xmlns:xlink="http://www.w3.org/1999/xlink">
<title>Icon</title>
<desc>Created using Figma</desc>
<g id="Canvas" transform="translate(-33 -1214)">
<g id="Icon">
<use xlink:href="#path0_fill" transform="translate(33 1214)" fill="#9FDE5A"/>
</g>
</g>
<defs>
<path id="path0_fill" fill-rule="evenodd" d="M 0 20L 4 20L 4 8L 0 8L 0 20ZM 22 9C 22 7.9 21.1 7 20 7L 13.69 7L 14.64 2.43L 14.67 2.11C 14.67 1.7 14.5 1.32 14.23 1.05L 13.17 0L 6.59 6.59C 6.22 6.95 6 7.45 6 8L 6 18C 6 19.1 6.9 20 8 20L 17 20C 17.83 20 18.54 19.5 18.84 18.78L 21.86 11.73C 21.95 11.5 22 11.26 22 11L 22 9.09L 21.99 9.08L 22 9Z"/>
</defs>
</svg>